# xmcd
#
# Track frame offsets: 
#        150
#        16076
#        29402
#        45191
#        58393
#        68984
#        80359
#        92694
#        105241
#        119775
#        136757
#        151386
#        165025
#        177722
#        190510
#
# Disc length: 2709 seconds
#
# Revision: 0
# Processed by: cddbd v1.5.2PL0 Copyright (c) Steve Scherf et al.
# Submitted via: ExactAudioCopy v1.2
#
DISCID=b60a930f
DTITLE=Buck Trent - Spartanburg Blues
DYEAR=2018
DGENRE=Bluegrass
TTITLE0=Hey Pal - Wagon Blaster
TTITLE1=Carroll County Accident [feat. Dolly Parton]
TTITLE2=Gone Gone Gone [feat. David Frizzell]
TTITLE3=I Thought I Heard You Calling My Name [feat. Connie Smith w. M
TTITLE3=arty Stuart and His Fabulous Superlatives]
TTITLE4=Buckin' The Five [feat. Marty Stuart and His Fabulous Superlativ
TTITLE4=es]
TTITLE5=Farm In Pennsyltucky [feat. Jeannie Seely]
TTITLE6=Kindly Keep It Country [feat. Vince Gill]
TTITLE7=Let's Go All The Way [feat. Norma Jean]
TTITLE8=Slew Foot [feat. Rodney and Beverly Dillard]
TTITLE9=Jolene [feat. Rhonda Vincent]
TTITLE10=Spartanburg Blues [feat. Marty Stuart and His Fabulous Superlat
TTITLE10=ives]
TTITLE11=Tear The Woodpile Down [feat. Marty Stuart and His Fabulous Sup
TTITLE11=erlatives]
TTITLE12=I'm Using My Bible For A Roadmap [feat. The Reno Brothers and R
TTITLE12=icky Van Shelton]
TTITLE13=Y'All Come [feat. The Oak Ridge Boys]
TTITLE14=Until Dawn [feat. Marty Stuart and His Fabulous Superlatives]
EXTD=
EXTT0=
EXTT1=
EXTT2=
EXTT3=
EXTT4=
EXTT5=
EXTT6=
EXTT7=
EXTT8=
EXTT9=
EXTT10=
EXTT11=
EXTT12=
EXTT13=
EXTT14=
PLAYORDER=
